<?xml version="1.0" encoding="UTF-8"?>
<svg width="512px" height="512px" viewBox="0 0 512 512" version="1.1" xmlns="http://www.w3.org/2000/svg" xmlns:xlink="http://www.w3.org/1999/xlink">
    <!-- Generator: Sketch 47.1 (45422) - http://www.bohemiancoding.com/sketch -->
    <title>icon-mask</title>
    <desc>Created with Sketch.</desc>
    <defs></defs>
    <g id="Page-1" stroke="none" stroke-width="1" fill="none" fill-rule="evenodd">
        <g id="icon-mask" fill-rule="nonzero" fill="#FFFFFF">
            <g id="icon" transform="translate(72.000000, 10.000000)">
                <path d="M317.75,450 L71.75,450 C54.7934568,450 41,436.243506 41,419.332401 L41,103.222533 C41,97.577179 45.5894775,93 51.25,93 L317.75,93 C323.410523,93 328,97.577179 328,103.222533 L328,439.777468 C328,445.422821 323.410523,450 317.75,450 Z M61.5,113.445066 L61.5,419.332402 C61.5,424.967773 66.0994876,429.554935 71.75,429.554935 L307.5,429.554935 L307.5,113.445066 L61.5,113.445066 Z" id="Shape"></path>
                <path d="M257.736955,113 L111.263046,113 C105.595319,113 101,108.436204 101,102.807355 L101,36.9184759 C101,31.2896276 105.595319,26.7258311 111.263046,26.7258311 L123.846301,26.7258311 L141.295484,4.01136326 C143.234839,1.48310932 146.251613,0 149.453804,0 L219.546196,0 C222.748387,0 225.765161,1.48310932 227.704516,4.01136326 L245.153699,26.7258311 L257.736954,26.7258311 C263.404681,26.7258311 268,31.2896276 268,36.9184759 L268,102.807355 C268.000001,108.436204 263.404682,113 257.736955,113 Z M121.526092,92.6147105 L247.473909,92.6147105 L247.473909,47.1111207 L240.072289,47.1111207 C236.870099,47.1111207 233.853325,45.6280114 231.913969,43.0997574 L214.464787,20.3852895 L154.535214,20.3852895 L137.086032,43.0997574 C135.146677,45.6280114 132.129902,47.1111207 128.927712,47.1111207 L121.526092,47.1111207 L121.526092,92.6147105 Z" id="Shape"></path>
                <path d="M338.25,491 L30.75,491 C13.7934568,491 0,477.230664 0,460.303774 L0,82.6962261 C0,65.7693356 13.7934568,52 30.75,52 L111.358642,52 C117.019165,52 121.608642,56.5814517 121.608642,62.2320754 L121.608642,92.8333755 L247.396363,92.8333755 L247.396363,62.2320754 C247.396363,56.5814517 251.98584,52 257.646363,52 L338.25,52 C355.206543,52 369,65.7693356 369,82.6962261 L369,460.303774 C369,477.230664 355.206543,491 338.25,491 Z M30.75,72.4641508 C25.0994876,72.4641508 20.5,77.0555951 20.5,82.6962261 L20.5,460.303774 C20.5,465.944405 25.0994876,470.535849 30.75,470.535849 L338.25,470.535849 C343.900512,470.535849 348.5,465.944405 348.5,460.303774 L348.5,82.6962261 C348.5,77.0555951 343.900512,72.4641508 338.25,72.4641508 L267.896363,72.4641508 L267.896363,103.065451 C267.896363,108.716075 263.306885,113.297526 257.646363,113.297526 L111.358642,113.297526 C105.69812,113.297526 101.108642,108.716075 101.108642,103.065451 L101.108642,72.4641508 L30.75,72.4641508 Z" id="Shape"></path>
                <path d="M156.807565,189 L102.192435,189 C96.5637027,189 92,184.522461 92,179 C92,173.477539 96.5637027,169 102.192435,169 L156.807565,169 C162.436297,169 167,173.477539 167,179 C167,184.522461 162.436297,189 156.807565,189 Z" id="Shape"></path>
                <path d="M156.807565,251 L102.192435,251 C96.5637027,251 92,246.522461 92,241 C92,235.477539 96.5637027,231 102.192435,231 L156.807565,231 C162.436297,231 167,235.477539 167,241 C167,246.522461 162.436297,251 156.807565,251 Z" id="Shape"></path>
                <path d="M156.807565,312 L102.192435,312 C96.5637027,312 92,307.522461 92,302 C92,296.477539 96.5637027,292 102.192435,292 L156.807565,292 C162.436297,292 167,296.477539 167,302 C167,307.522461 162.436297,312 156.807565,312 Z" id="Shape"></path>
                <path d="M156.807565,373 L102.192435,373 C96.5637027,373 92,368.522461 92,363 C92,357.477539 96.5637027,353 102.192435,353 L156.807565,353 C162.436297,353 167,357.477539 167,363 C167,368.522461 162.436297,373 156.807565,373 Z" id="Shape"></path>
                <path d="M265.806888,189 L211.193112,189 C205.564005,189 201,184.522461 201,179 C201,173.477539 205.564005,169 211.193112,169 L265.806888,169 C271.435995,169 276,173.477539 276,179 C276,184.522461 271.435995,189 265.806888,189 Z" id="Shape"></path>
                <path d="M265.806888,251 L211.193112,251 C205.564005,251 201,246.522461 201,241 C201,235.477539 205.564005,231 211.193112,231 L265.806888,231 C271.435995,231 276,235.477539 276,241 C276,246.522461 271.435995,251 265.806888,251 Z" id="Shape"></path>
                <path d="M265.806888,312 L211.193112,312 C205.564005,312 201,307.522461 201,302 C201,296.477539 205.564005,292 211.193112,292 L265.806888,292 C271.435995,292 276,296.477539 276,302 C276,307.522461 271.435995,312 265.806888,312 Z" id="Shape"></path>
                <path d="M265.806888,373 L211.193112,373 C205.564005,373 201,368.522461 201,363 C201,357.477539 205.564005,353 211.193112,353 L265.806888,353 C271.435995,353 276,357.477539 276,363 C276,368.522461 271.435995,373 265.806888,373 Z" id="Shape"></path>
            </g>
        </g>
    </g>
</svg>