<?xml version="1.0" encoding="UTF-8"?>
<svg width="512px" height="512px" viewBox="0 0 512 512" version="1.1" xmlns="http://www.w3.org/2000/svg" xmlns:xlink="http://www.w3.org/1999/xlink">
    <!-- Generator: Sketch 47.1 (45422) - http://www.bohemiancoding.com/sketch -->
    <title>icon</title>
    <desc>Created with Sketch.</desc>
    <defs></defs>
    <g id="Page-1" stroke="none" stroke-width="1" fill="none" fill-rule="evenodd">
        <g id="icon">
            <g>
                <circle id="Oval-Copy" fill="#008FC4" cx="256" cy="256" r="256"></circle>
                <g transform="translate(126.000000, 83.000000)" id="Shape" fill-rule="nonzero" fill="#FFFFFF">
                    <path d="M223.888889,317.233541 L50.5555556,317.233541 C38.6078557,317.233541 28.8888889,307.533264 28.8888889,295.608541 L28.8888889,72.7063193 C28.8888889,68.7255453 32.1226671,65.497986 36.1111111,65.497986 L223.888889,65.497986 C227.877333,65.497986 231.111111,68.7255453 231.111111,72.7063193 L231.111111,310.025208 C231.111111,314.005981 227.877333,317.233541 223.888889,317.233541 Z M43.3333333,79.9146526 L43.3333333,295.608541 C43.3333333,299.582276 46.5741647,302.816875 50.5555556,302.816875 L216.666667,302.816875 L216.666667,79.9146526 L43.3333333,79.9146526 Z"></path>
                    <path d="M181.539442,79.9146526 L78.4640841,79.9146526 C74.4756401,79.9146526 71.2418619,76.6870933 71.2418619,72.7063193 L71.2418619,26.1090901 C71.2418619,22.1283161 74.4756401,18.9007567 78.4640841,18.9007567 L87.3190644,18.9007567 L99.5982527,2.83687346 C100.962999,1.04886872 103.085938,0 105.339355,0 L154.664171,0 C156.917588,0 159.040527,1.04886872 160.405273,2.83687346 L172.684461,18.9007567 L181.539442,18.9007567 C185.527886,18.9007567 188.761664,22.1283161 188.761664,26.1090901 L188.761664,72.7063193 C188.761665,76.6870933 185.527887,79.9146526 181.539442,79.9146526 Z M85.6863063,65.497986 L174.31722,65.497986 L174.31722,33.3174234 L169.108616,33.3174234 C166.855198,33.3174234 164.73226,32.2685547 163.367513,30.4805499 L151.088325,14.4166667 L108.915202,14.4166667 L96.6360135,30.4805499 C95.2712677,32.2685547 93.1483287,33.3174234 90.8949109,33.3174234 L85.6863063,33.3174234 L85.6863063,65.497986 Z"></path>
                    <path d="M238.333333,346 L21.6666667,346 C9.71896683,346 0,336.299723 0,324.375 L0,58.3565265 C0,46.431803 9.71896683,36.7315265 21.6666667,36.7315265 L78.4640841,36.7315265 C82.4525282,36.7315265 85.6863063,39.9590859 85.6863063,43.9398598 L85.6863063,65.497986 L174.31722,65.497986 L174.31722,43.9398598 C174.31722,39.9590859 177.550998,36.7315265 181.539443,36.7315265 L238.333333,36.7315265 C250.281033,36.7315265 260,46.431803 260,58.3565265 L260,324.375 C260,336.299723 250.281033,346 238.333333,346 Z M21.6666667,51.1481932 C17.6852758,51.1481932 14.4444444,54.3827922 14.4444444,58.3565265 L14.4444444,324.375 C14.4444444,328.348734 17.6852758,331.583333 21.6666667,331.583333 L238.333333,331.583333 C242.314724,331.583333 245.555556,328.348734 245.555556,324.375 L245.555556,58.3565265 C245.555556,54.3827922 242.314724,51.1481932 238.333333,51.1481932 L188.761665,51.1481932 L188.761665,72.7063193 C188.761665,76.6870933 185.527887,79.9146526 181.539442,79.9146526 L78.4640841,79.9146526 C74.4756401,79.9146526 71.2418619,76.6870933 71.2418619,72.7063193 L71.2418619,51.1481932 L21.6666667,51.1481932 Z"></path>
                    <path d="M110.921766,133.850444 L72.2222222,133.850444 C68.2337782,133.850444 65,130.622884 65,126.642111 C65,122.661337 68.2337782,119.433777 72.2222222,119.433777 L110.921766,119.433777 C114.91021,119.433777 118.143988,122.661337 118.143988,126.642111 C118.143988,130.622884 114.91021,133.850444 110.921766,133.850444 Z"></path>
                    <path d="M110.921766,176.998372 L72.2222222,176.998372 C68.2337782,176.998372 65,173.770813 65,169.790039 C65,165.809265 68.2337782,162.581706 72.2222222,162.581706 L110.921766,162.581706 C114.91021,162.581706 118.143988,165.809265 118.143988,169.790039 C118.143988,173.770813 114.91021,176.998372 110.921766,176.998372 Z"></path>
                    <path d="M110.921766,220.146301 L72.2222222,220.146301 C68.2337782,220.146301 65,216.918742 65,212.937968 C65,208.957194 68.2337782,205.729634 72.2222222,205.729634 L110.921766,205.729634 C114.91021,205.729634 118.143988,208.957194 118.143988,212.937968 C118.143988,216.918742 114.91021,220.146301 110.921766,220.146301 Z"></path>
                    <path d="M110.921766,263.29775 L72.2222222,263.29775 C68.2337782,263.29775 65,260.070191 65,256.089417 C65,252.108643 68.2337782,248.881083 72.2222222,248.881083 L110.921766,248.881083 C114.91021,248.881083 118.143988,252.108643 118.143988,256.089417 C118.143988,260.070191 114.91021,263.29775 110.921766,263.29775 Z"></path>
                    <path d="M187.777778,133.850444 L149.08176,133.850444 C145.093316,133.850444 141.859537,130.622884 141.859537,126.642111 C141.859537,122.661337 145.093316,119.433777 149.08176,119.433777 L187.777778,119.433777 C191.766222,119.433777 195,122.661337 195,126.642111 C195,130.622884 191.766222,133.850444 187.777778,133.850444 Z"></path>
                    <path d="M187.777778,176.998372 L149.08176,176.998372 C145.093316,176.998372 141.859537,173.770813 141.859537,169.790039 C141.859537,165.809265 145.093316,162.581706 149.08176,162.581706 L187.777778,162.581706 C191.766222,162.581706 195,165.809265 195,169.790039 C195,173.770813 191.766222,176.998372 187.777778,176.998372 Z"></path>
                    <path d="M187.777778,220.146301 L149.08176,220.146301 C145.093316,220.146301 141.859537,216.918742 141.859537,212.937968 C141.859537,208.957194 145.093316,205.729634 149.08176,205.729634 L187.777778,205.729634 C191.766222,205.729634 195,208.957194 195,212.937968 C195,216.918742 191.766222,220.146301 187.777778,220.146301 Z"></path>
                    <path d="M187.777778,263.29775 L149.08176,263.29775 C145.093316,263.29775 141.859537,260.070191 141.859537,256.089417 C141.859537,252.108643 145.093316,248.881083 149.08176,248.881083 L187.777778,248.881083 C191.766222,248.881083 195,252.108643 195,256.089417 C195,260.070191 191.766222,263.29775 187.777778,263.29775 Z"></path>
                </g>
            </g>
        </g>
    </g>
</svg>