<?xml version="1.0" encoding="UTF-8"?>
<svg width="512px" height="512px" viewBox="0 0 512 512" version="1.1" xmlns="http://www.w3.org/2000/svg" xmlns:xlink="http://www.w3.org/1999/xlink">
    <!-- Generator: Sketch 48.2 (47327) - http://www.bohemiancoding.com/sketch -->
    <title>icon</title>
    <desc>Created with Sketch.</desc>
    <defs></defs>
    <g id="Page-1" stroke="none" stroke-width="1" fill="none" fill-rule="evenodd">
        <g id="icon">
            <g fill="#008FC4" id="Oval-Copy">
                <circle cx="256" cy="256" r="256"></circle>
            </g>
            <path d="M365,108 L149,108 C145.688,108 143,110.67904 143,113.98 L143,401.02 C143,404.32694 145.688,407 149,407 L365,407 C368.318,407 371,404.32694 371,401.02 L371,113.98 C371,110.67904 368.318,108 365,108 Z M185,155 L269,155 C272.318,155 275,157.464 275,160.5 C275,163.536 272.318,166 269,166 L185,166 C181.688,166 179,163.536 179,160.5 C179,157.464 181.688,155 185,155 Z M185,192 L269,192 C272.318,192 275,194.464 275,197.5 C275,200.536 272.318,203 269,203 L185,203 C181.688,203 179,200.536 179,197.5 C179,194.464 181.688,192 185,192 Z M179,269.5 C179,266.4585 181.688,264 185,264 L269,264 C272.318,264 275,266.4585 275,269.5 C275,272.5415 272.318,275 269,275 L185,275 C181.688,275 179,272.5415 179,269.5 Z M278.009738,320.132371 L254.512154,355.3854 C253.537005,356.848401 251.950918,357.800233 250.206222,357.970622 C250.006492,357.988249 249.818512,358 249.624657,358 C248.073816,358 246.575845,357.388947 245.471459,356.278477 L233.722667,344.527467 C231.425778,342.230145 231.425778,338.516826 233.722667,336.219504 C236.019555,333.922181 239.732174,333.922181 242.029063,336.219504 L248.714125,342.905828 L268.234743,313.616436 C270.026434,310.91958 273.674434,310.185142 276.382531,311.988922 C279.084753,313.786826 279.813178,317.429639 278.009738,320.132371 Z M329,275 L305,275 C301.682,275 299,272.5415 299,269.5 C299,266.4585 301.682,264 305,264 L329,264 C332.318,264 335,266.4585 335,269.5 C335,272.5415 332.318,275 329,275 Z M329,239 L185,239 C181.688,239 179,236.536 179,233.5 C179,230.464 181.688,228 185,228 L329,228 C332.318,228 335,230.464 335,233.5 C335,236.536 332.318,239 329,239 Z M329,203 L305,203 C301.682,203 299,200.536 299,197.5 C299,194.464 301.682,192 305,192 L329,192 C332.318,192 335,194.464 335,197.5 C335,200.536 332.318,203 329,203 Z M329,166 L305,166 C301.682,166 299,163.536 299,160.5 C299,157.464 301.682,155 305,155 L329,155 C332.318,155 335,157.464 335,160.5 C335,163.536 332.318,166 329,166 Z" id="Shape" fill="#FFFFFF" fill-rule="nonzero"></path>
        </g>
    </g>
</svg>