<?xml version="1.0" encoding="UTF-8"?>
<svg width="512px" height="512px" viewBox="0 0 512 512" version="1.1" xmlns="http://www.w3.org/2000/svg" xmlns:xlink="http://www.w3.org/1999/xlink">
    <!-- Generator: Sketch 48.2 (47327) - http://www.bohemiancoding.com/sketch -->
    <title>icon-mask</title>
    <desc>Created with Sketch.</desc>
    <defs></defs>
    <g id="Page-1" stroke="none" stroke-width="1" fill="none" fill-rule="evenodd">
        <g id="icon-mask" fill="#FFFFFF" fill-rule="nonzero">
            <path d="M435.052632,8 L76.9473684,8 C71.4564211,8 67,12.45312 67,17.94 L67,495.06 C67,500.55682 71.4564211,505 76.9473684,505 L435.052632,505 C440.553526,505 445,500.55682 445,495.06 L445,17.94 C445,12.45312 440.553526,8 435.052632,8 Z M136.9375,87 L276.0625,87 C281.557937,87 286,91.256 286,96.5 C286,101.744 281.557937,106 276.0625,106 L136.9375,106 C131.452,106 127,101.744 127,96.5 C127,91.256 131.452,87 136.9375,87 Z M136.9375,148 L276.0625,148 C281.557937,148 286,152.256 286,157.5 C286,162.744 281.557937,167 276.0625,167 L136.9375,167 C131.452,167 127,162.744 127,157.5 C127,152.256 131.452,148 136.9375,148 Z M127,276.5 C127,271.2465 131.452,267 136.9375,267 L276.0625,267 C281.557937,267 286,271.2465 286,276.5 C286,281.7535 281.557937,286 276.0625,286 L136.9375,286 C131.452,286 127,281.7535 127,276.5 Z M293.335518,361.350156 L253.839578,420.605247 C252.200497,423.064334 249.534521,424.664221 246.601948,424.950621 C246.266232,424.980248 245.950265,425 245.624423,425 C243.017691,425 240.499825,423.972912 238.643516,422.106376 L218.895546,402.354679 C215.034818,398.493222 215.034818,392.251686 218.895546,388.390229 C222.756274,384.528773 228.996633,384.528773 232.857361,388.390229 L244.093955,399.628945 L276.905207,350.39784 C279.916772,345.864826 286.048517,344.630344 290.600424,347.66223 C295.142457,350.68424 296.366831,356.807266 293.335518,361.350156 Z M376,286 L336,286 C330.47,286 326,281.7535 326,276.5 C326,271.2465 330.47,267 336,267 L376,267 C381.53,267 386,271.2465 386,276.5 C386,281.7535 381.53,286 376,286 Z M376.038462,226 L136.961538,226 C131.462769,226 127,221.744 127,216.5 C127,211.256 131.462769,207 136.961538,207 L376.038462,207 C381.547192,207 386,211.256 386,216.5 C386,221.744 381.547192,226 376.038462,226 Z M376,167 L336,167 C330.47,167 326,162.744 326,157.5 C326,152.256 330.47,148 336,148 L376,148 C381.53,148 386,152.256 386,157.5 C386,162.744 381.53,167 376,167 Z M376,106 L336,106 C330.47,106 326,101.744 326,96.5 C326,91.256 330.47,87 336,87 L376,87 C381.53,87 386,91.256 386,96.5 C386,101.744 381.53,106 376,106 Z" id="Shape"></path>
        </g>
    </g>
</svg>